<svg xmlns="http://www.w3.org/2000/svg">
  <symbol preserveAspectRatio="xMidYMid" id="icon-caret-down">
    <title>caret-down</title>
    <path d="M7 7.707L.888.185a.5.5 0 1 0-.776.63l6.5 8a.5.5 0 0 0 .776 0l6.5-8a.5.5 0 1 0-.776-.63L7 7.707z" />
  </symbol>
  <symbol preserveAspectRatio="xMidYMid" id="icon-caret-selected">
    <title>caret-selected</title>
    <path d="M10.112.185a.5.5 0 0 1 .776.63l-6.5 8a.5.5 0 0 1-.764.014l-3.5-4a.5.5 0 0 1 .752-.658l3.11 3.554 6.126-7.54z" fill-rule="nonzero" />
  </symbol>
  <symbol preserveAspectRatio="xMidYMid" viewBox="0 0 35 35" id="icon-check-circle">
    <title>check-circle</title>
    <g stroke="currentColor">
      <circle cx="17.5" cy="17.5" r="16.5" />
      <path d="M25.696 10L13.718 26 9 21.478" />
    </g>
  </symbol>
  <symbol preserveAspectRatio="xMidYMid" viewBox="0 0 18 17" id="icon-check">
    <title>check</title>
    <path stroke="currentColor" stroke-width="2" d="M1 7l6 8L17 1" />
  </symbol>
  <symbol preserveAspectRatio="xMidYMid" viewBox="0 0 20 20" id="icon-cross">
    <title>cross</title>
    <path d="M18.964 1.036l-17.93 17.93m17.93 0L1.034 1.036" stroke="currentColor" />
  </symbol>
  <symbol preserveAspectRatio="xMidYMid" viewBox="178 19 77 77" id="icon-error">
    <title>error</title>
    <g stroke="currentColor">
      <path d="M216.499 94.357c-20.35.351-36.494-15.86-36.846-36.213-.355-20.346 16.496-37.14 36.846-37.492 20.349-.355 36.493 15.863 36.845 36.21.352 20.352-16.493 37.14-36.845 37.495zm-.513-31.833V39.073" />
      <path d="M218.174 74.25a1.676 1.676 0 1 1-3.352-.001 1.676 1.676 0 0 1 3.352.001z" />
    </g>
  </symbol>
  <symbol preserveAspectRatio="xMidYMid" viewBox="0 0 53 53" id="icon-search">
    <title>search</title>
    <path d="M51.704 51.273L36.845 35.82c3.79-3.801 6.138-9.041 6.138-14.82 0-11.58-9.42-21-21-21s-21 9.42-21 21 9.42 21 21 21c5.083 0 9.748-1.817 13.384-4.832l14.895 15.491a.998.998 0 0 0 1.414.028 1 1 0 0 0 .028-1.414zM21.983 40c-10.477 0-19-8.523-19-19s8.523-19 19-19 19 8.523 19 19-8.524 19-19 19z" />
  </symbol>
  <symbol preserveAspectRatio="xMidYMid" id="icon-vertical-menu">
    <title>vertical-menu</title>
    <circle cx="2.5" cy="18.5" r="2.5" />
    <circle cx="2.5" cy="10.5" r="2.5" />
    <circle cx="2.5" cy="2.5" r="2.5" />
  </symbol>
</svg>
