<svg xmlns="http://www.w3.org/2000/svg">
  <symbol preserveAspectRatio="xMidYMid" id="icon-caret-down">
    <title>caret-down</title>
    <path d="M7 7.707L.888.185a.5.5 0 1 0-.776.63l6.5 8a.5.5 0 0 0 .776 0l6.5-8a.5.5 0 1 0-.776-.63L7 7.707z" fill="inherit" />
  </symbol>
  <symbol preserveAspectRatio="xMidYMid" viewBox="0 0 11 9" id="icon-caret-selected">
    <title>caret-selected</title>
    <path d="M10.112.185a.5.5 0 0 1 .776.63l-6.5 8a.5.5 0 0 1-.764.014l-3.5-4a.5.5 0 0 1 .752-.658l3.11 3.554 6.126-7.54z" fill-rule="nonzero" />
  </symbol>
  <symbol preserveAspectRatio="xMidYMid" viewBox="0 0 40 40" id="icon-chart">
    <title>chart</title>
    <g stroke="currentColor" stroke-width="1.5" fill-rule="evenodd">
      <path d="M7.55 22.8l8.4-5.029m8.1 3.458l8.4-5.029m-7.95 4.086L17 17.143" stroke-linecap="round" />
      <path d="M33.5 17.143c.828 0 1.5-.704 1.5-1.572 0-.867-.672-1.571-1.5-1.571s-1.5.704-1.5 1.571c0 .868.672 1.572 1.5 1.572zm-9 4.714c.828 0 1.5-.703 1.5-1.571s-.672-1.572-1.5-1.572-1.5.704-1.5 1.572c0 .868.672 1.571 1.5 1.571zm-9-1.571c.828 0 1.5-.704 1.5-1.572 0-.868-.672-1.571-1.5-1.571s-1.5.703-1.5 1.571.672 1.572 1.5 1.572zM6.5 25c.828 0 1.5-.704 1.5-1.571 0-.868-.672-1.572-1.5-1.572S5 22.561 5 23.43c0 .866.672 1.57 1.5 1.57z" fill="#F7F7F7" />
    </g>
  </symbol>
  <symbol preserveAspectRatio="xMidYMid" viewBox="0 0 35 35" id="icon-check-circle">
    <title>check-circle</title>
    <g stroke="currentColor" fill="transparent">
      <circle cx="17.5" cy="17.5" r="16.5" />
      <path d="M25.696 10L13.718 26 9 21.478" />
    </g>
  </symbol>
  <symbol preserveAspectRatio="xMidYMid" viewBox="0 0 18 17" id="icon-check">
    <title>check</title>
    <path fill="none" stroke="currentColor" stroke-width="2" d="M1 7l6 8L17 1" />
  </symbol>
  <symbol preserveAspectRatio="xMidYMid" viewBox="0 0 20 20" id="icon-cross">
    <title>cross</title>
    <path d="M18.964 1.036l-17.93 17.93m17.93 0L1.034 1.036" stroke="currentColor" fill="none" />
  </symbol>
  <symbol preserveAspectRatio="xMidYMid" viewBox="0 0 40 40" id="icon-document">
    <title>document</title>
    <g fill="none" fill-rule="evenodd" stroke-linecap="round" stroke="currentColor" stroke-width="1.315">
      <path d="M8.644 33h22.712c.908 0 1.644-.736 1.644-1.644V8.644C33 7.736 32.264 7 31.356 7H8.644C7.736 7 7 7.736 7 8.644v22.712C7 32.264 7.736 33 8.644 33z" stroke-linejoin="round" />
      <path d="M13 13.5h14m-14 4h14m-14 4h14m-14 5h8" />
    </g>
  </symbol>
  <symbol preserveAspectRatio="xMidYMid" viewBox="178 19 77 77" id="icon-error">
    <title>error</title>
    <g fill="none" stroke="currentColor">
      <path d="M216.499 94.357c-20.35.351-36.494-15.86-36.846-36.213-.355-20.346 16.496-37.14 36.846-37.492 20.349-.355 36.493 15.863 36.845 36.21.352 20.352-16.493 37.14-36.845 37.495zm-.513-31.833V39.073" />
      <path d="M218.174 74.25a1.676 1.676 0 1 1-3.352-.001 1.676 1.676 0 0 1 3.352.001z" />
    </g>
  </symbol>
  <symbol preserveAspectRatio="xMidYMid" viewBox="0 0 14 20" id="icon-map-marker">
    <title>map-marker</title>
    <g fill="#fff" fill-rule="evenodd" transform="translate(1 1)">
      <path fill="currentColor" fill-rule="nonzero" d="M6 4.235c-1.103 0-2 .95-2 2.118C4 7.52 4.897 8.47 6 8.47s2-.95 2-2.118c0-1.167-.897-2.118-2-2.118zm0 3.63c-.788 0-1.429-.678-1.429-1.512S5.212 4.84 6 4.84s1.429.679 1.429 1.513c0 .834-.641 1.513-1.429 1.513z" />
      <path fill-rule="nonzero" stroke="#28343B" d="M10.244 1.846C9.11.656 7.604 0 6 0 4.398 0 2.89.656 1.758 1.846-.34 4.05-.6 8.195 1.193 10.706L6.001 18l4.8-7.284c1.8-2.521 1.54-6.666-.557-8.87z" />
      <ellipse cx="6" cy="6.353" stroke="currentColor" rx="2" ry="2.118" />
    </g>
  </symbol>
  <symbol preserveAspectRatio="xMidYMid" viewBox="3 3 18 18" id="icon-pencil">
    <title>pencil</title>
    <g stroke="currentColor" fill="inherit" fill-rule="evenodd">
      <path d="M16.18 5.344l-9.76 9.762a.4.4 0 0 0 .137.656c.399.155.742.374 1.025.657.283.283.502.626.657 1.025a.4.4 0 0 0 .656.137l9.762-9.762c-.03-.832-.25-1.435-.646-1.83-.394-.394-.997-.614-1.83-.645z" />
      <path stroke-linecap="round" d="M6.432 15.182l-.796 3.182 3.182-.796M14.784 6.83c.873-.103 1.508.045 1.906.443.397.398.558 1.045.48 1.943" />
    </g>
  </symbol>
  <symbol preserveAspectRatio="xMidYMid" viewBox="0 0 53 53" id="icon-search">
    <title>search</title>
    <path fill="#9b9b9b" d="M51.704 51.273L36.845 35.82c3.79-3.801 6.138-9.041 6.138-14.82 0-11.58-9.42-21-21-21s-21 9.42-21 21 9.42 21 21 21c5.083 0 9.748-1.817 13.384-4.832l14.895 15.491a.998.998 0 0 0 1.414.028 1 1 0 0 0 .028-1.414zM21.983 40c-10.477 0-19-8.523-19-19s8.523-19 19-19 19 8.523 19 19-8.524 19-19 19z" />
  </symbol>
  <symbol preserveAspectRatio="xMidYMid" viewBox="0 0 24 24" id="icon-shop">
    <title>shop</title>
    <g stroke="currentColor" stroke-linecap="round" stroke-linejoin="round" stroke-width=".8" fill="#fff" fill-rule="evenodd">
      <path d="M20.963 10.044v10.06a1 1 0 0 1-1 1H4.037a1 1 0 0 1-1-1v-10.06" />
      <path d="M9.556 21.104h4.888v-7.916H9.556zM2.886 3.98L1.407 6.855h21.186l-1.48-2.873a2 2 0 0 0-1.778-1.085H4.665A2 2 0 0 0 2.886 3.98z" />
      <path d="M17.704 9.23c-1.333 2.09-4.014 2.526-5.702.635-1.707 1.915-4.39 1.425-5.706-.636-2.03 1.996-4.889.453-4.889-2.375h21.186c0 2.828-2.836 4.391-4.89 2.375z" />
      <path d="M6.296 9.23V6.457l.664-3.506m5.042 6.919V2.95m5.702 6.28V6.457l-.66-3.506" />
    </g>
  </symbol>
  <symbol preserveAspectRatio="xMidYMid" viewBox="0 0 21 12" id="icon-truck">
    <title>truck</title>
    <g fill="none" fill-rule="evenodd" stroke="#28343B">
      <path fill="#fff" d="M14.5 12V2A1.5 1.5 0 0 0 13 .5H2A1.5 1.5 0 0 0 .5 2v8.5A1.5 1.5 0 0 0 2 12h12.5zm0-8v7.5a.5.5 0 0 0 .5.5h5a.5.5 0 0 0 .5-.5V7.541a.5.5 0 0 0-.092-.29l-2.218-3.12a1.5 1.5 0 0 0-1.222-.631H15a.5.5 0 0 0-.5.5z" />
      <path stroke-linecap="round" d="M15 7.5h5.346" />
      <ellipse cx="17.132" cy="12.045" fill="#fff" rx="1.632" ry="1.545" />
      <ellipse cx="4.132" cy="12.045" fill="#fff" rx="1.632" ry="1.545" />
    </g>
  </symbol>
  <symbol preserveAspectRatio="xMidYMid" viewBox="0 0 24 24" id="icon-vertical-menu">
    <title>vertical-menu</title>
    <g fill="currentColor" transform="translate(10.25 4.25)" style="transition:inherit">
      <circle cx="1.75" cy="1.75" r="1.75" />
      <circle cx="1.75" cy="7.75" r="1.75" />
      <circle cx="1.75" cy="13.75" r="1.75" />
    </g>
  </symbol>
</svg>
