<svg xmlns="http://www.w3.org/2000/svg">
  <symbol preserveAspectRatio="xMidYMid" id="icon-caret-down">
    <title>caret-down</title>
    <path d="M7 7.707L.888.185a.5.5 0 1 0-.776.63l6.5 8a.5.5 0 0 0 .776 0l6.5-8a.5.5 0 1 0-.776-.63L7 7.707z" fill="inherit" />
  </symbol>
  <symbol preserveAspectRatio="xMidYMid" viewBox="0 0 11 9" id="icon-caret-selected">
    <title>caret-selected</title>
    <path d="M10.112.185a.5.5 0 0 1 .776.63l-6.5 8a.5.5 0 0 1-.764.014l-3.5-4a.5.5 0 0 1 .752-.658l3.11 3.554 6.126-7.54z" fill-rule="nonzero" />
  </symbol>
  <symbol preserveAspectRatio="xMidYMid" viewBox="0 0 24 24" id="icon-cart">
    <title>cart</title>
    <g stroke="currentColor" stroke-width=".8" fill="none" fill-rule="evenodd">
      <path d="M17.042 20.19c0 .75.616 1.358 1.375 1.358s1.375-.608 1.375-1.358c0-.749-.616-1.357-1.375-1.357-.76 0-1.375.608-1.375 1.357zm-10.084 0c0 .75.616 1.358 1.375 1.358.76 0 1.375-.608 1.375-1.358 0-.749-.616-1.357-1.375-1.357s-1.375.608-1.375 1.357z" />
      <path stroke-linecap="round" stroke-linejoin="round" d="M1.407 3.396h1.995a1.6 1.6 0 0 1 1.557 1.23l3.374 14.207h10.084" />
      <path stroke-linecap="round" stroke-linejoin="round" d="M8.326 16.854h10.516a.8.8 0 0 0 .758-.544l2.135-6.316a.8.8 0 0 0-.757-1.056H6.22" />
    </g>
  </symbol>
  <symbol preserveAspectRatio="xMidYMid" viewBox="0 0 40 40" id="icon-chart">
    <title>chart</title>
    <g stroke="currentColor" stroke-width="1.5" fill-rule="evenodd">
      <path d="M7.55 22.8l8.4-5.029m8.1 3.458l8.4-5.029m-7.95 4.086L17 17.143" stroke-linecap="round" />
      <path d="M33.5 17.143c.828 0 1.5-.704 1.5-1.572 0-.867-.672-1.571-1.5-1.571s-1.5.704-1.5 1.571c0 .868.672 1.572 1.5 1.572zm-9 4.714c.828 0 1.5-.703 1.5-1.571s-.672-1.572-1.5-1.572-1.5.704-1.5 1.572c0 .868.672 1.571 1.5 1.571zm-9-1.571c.828 0 1.5-.704 1.5-1.572 0-.868-.672-1.571-1.5-1.571s-1.5.703-1.5 1.571.672 1.572 1.5 1.572zM6.5 25c.828 0 1.5-.704 1.5-1.571 0-.868-.672-1.572-1.5-1.572S5 22.561 5 23.43c0 .866.672 1.57 1.5 1.57z" fill="#F7F7F7" />
    </g>
  </symbol>
  <symbol preserveAspectRatio="xMidYMid" viewBox="0 0 35 35" id="icon-check-circle">
    <title>check-circle</title>
    <g stroke="currentColor" fill="transparent">
      <circle cx="17.5" cy="17.5" r="16.5" />
      <path d="M25.696 10L13.718 26 9 21.478" />
    </g>
  </symbol>
  <symbol preserveAspectRatio="xMidYMid" viewBox="0 0 18 17" id="icon-check">
    <title>check</title>
    <path fill="none" stroke="currentColor" stroke-width="2" d="M1 7l6 8L17 1" />
  </symbol>
  <symbol preserveAspectRatio="xMidYMid" viewBox="0 0 20 20" id="icon-cross">
    <title>cross</title>
    <path d="M18.964 1.036l-17.93 17.93m17.93 0L1.034 1.036" stroke="currentColor" fill="none" />
  </symbol>
  <symbol preserveAspectRatio="xMidYMid" viewBox="0 0 19 20" id="icon-csv">
    <title>csv</title>
    <g fill="currentColor">
      <path d="M18.862 5.412L13.742.118a.388.388 0 0 0-.28-.118h-7.63c-.854 0-1.55.691-1.55 1.54v5.383H1.19c-.64 0-1.16.517-1.16 1.153v5.771C.03 14.483.55 15 1.19 15h3.092v3.462c0 .848.695 1.538 1.549 1.538h11.59c.854 0 1.549-.69 1.549-1.537V5.679c0-.1-.039-.195-.108-.267zm-5.303-4.374l4.203 4.347h-4.203V1.038zM1.189 14.231a.385.385 0 0 1-.386-.384V8.076c0-.212.173-.384.386-.384h10.438c.212 0 .385.172.385.384v5.771a.385.385 0 0 1-.385.384H1.189zm17.008 4.232a.773.773 0 0 1-.776.768H5.83a.773.773 0 0 1-.776-.769V15h6.572c.639 0 1.158-.517 1.158-1.153V8.076c0-.636-.52-1.153-1.158-1.153H5.055V1.541c0-.426.348-.772.776-.772h6.954v5c0 .213.174.385.387.385h5.025v12.309z" />
      <path d="M5.28 12.145c-.157.18-.35.322-.58.428-.23.105-.495.157-.795.157a2.07 2.07 0 0 1-.757-.135 1.78 1.78 0 0 1-.603-.383 1.771 1.771 0 0 1-.4-.592A1.942 1.942 0 0 1 2 10.86c0-.283.05-.54.147-.77a1.733 1.733 0 0 1 1.018-.96c.233-.087.485-.13.755-.13.25 0 .496.044.737.133.242.088.438.217.588.387l-.58.58a.718.718 0 0 0-.315-.245 1.045 1.045 0 0 0-.812.002.968.968 0 0 0-.323.228c-.09.097-.16.21-.21.342-.05.132-.075.276-.075.433 0 .16.025.307.075.44.05.133.12.247.208.342.088.096.194.17.317.223.123.053.258.08.405.08a.94.94 0 0 0 .445-.1.863.863 0 0 0 .305-.26l.595.56zm2.235-2.13a.772.772 0 0 0-.287-.223.811.811 0 0 0-.515-.067.445.445 0 0 0-.158.058.39.39 0 0 0-.117.11.293.293 0 0 0-.048.172c0 .06.012.11.038.15.025.04.061.075.11.105a.98.98 0 0 0 .172.082c.067.026.142.051.225.078.12.04.245.084.375.133.13.048.248.112.355.192.107.08.195.18.265.297a.86.86 0 0 1 .105.443 1.06 1.06 0 0 1-.415.895 1.296 1.296 0 0 1-.435.215 1.83 1.83 0 0 1-.505.07c-.253 0-.498-.044-.735-.133a1.557 1.557 0 0 1-.59-.377l.56-.57c.087.107.2.196.343.268a.93.93 0 0 0 .422.107.85.85 0 0 0 .185-.02.461.461 0 0 0 .157-.065.321.321 0 0 0 .108-.12c.027-.05.04-.11.04-.18a.285.285 0 0 0-.05-.17.488.488 0 0 0-.143-.127 1.148 1.148 0 0 0-.23-.105 11.819 11.819 0 0 0-.312-.103 2.986 2.986 0 0 1-.332-.13 1.113 1.113 0 0 1-.29-.193.892.892 0 0 1-.205-.284.966.966 0 0 1-.078-.408c0-.197.04-.365.12-.505.08-.14.185-.255.315-.345.13-.09.277-.156.44-.197a1.838 1.838 0 0 1 1.107.047c.209.073.391.182.548.325l-.545.575zm2.84 2.62H9.5l-1.34-3.54h.96l.82 2.51h.02l.815-2.51h.945l-1.365 3.54z" />
    </g>
  </symbol>
  <symbol preserveAspectRatio="xMidYMid" viewBox="0 0 40 40" id="icon-document">
    <title>document</title>
    <g fill="none" fill-rule="evenodd" stroke-linecap="round" stroke="currentColor" stroke-width="1.315">
      <path d="M8.644 33h22.712c.908 0 1.644-.736 1.644-1.644V8.644C33 7.736 32.264 7 31.356 7H8.644C7.736 7 7 7.736 7 8.644v22.712C7 32.264 7.736 33 8.644 33z" stroke-linejoin="round" />
      <path d="M13 13.5h14m-14 4h14m-14 4h14m-14 5h8" />
    </g>
  </symbol>
  <symbol preserveAspectRatio="xMidYMid" viewBox="178 19 77 77" id="icon-error">
    <title>error</title>
    <g fill="none" stroke="currentColor">
      <path d="M216.499 94.357c-20.35.351-36.494-15.86-36.846-36.213-.355-20.346 16.496-37.14 36.846-37.492 20.349-.355 36.493 15.863 36.845 36.21.352 20.352-16.493 37.14-36.845 37.495zm-.513-31.833V39.073" />
      <path d="M218.174 74.25a1.676 1.676 0 1 1-3.352-.001 1.676 1.676 0 0 1 3.352.001z" />
    </g>
  </symbol>
  <symbol preserveAspectRatio="xMidYMid" viewBox="0 0 20 16" id="icon-image">
    <title>image</title>
    <g fill="currentColor">
      <path d="M19.655 0H.345A.346.346 0 0 0 0 .348v15.304c0 .193.154.348.345.348h19.31c.19 0 .345-.155.345-.348V.348A.346.346 0 0 0 19.655 0zm-.345 15.304H.69V.696h18.62v14.608z" />
      <path d="M5.5 9C6.879 9 8 7.879 8 6.5S6.879 4 5.5 4A2.503 2.503 0 0 0 3 6.5C3 7.879 4.121 9 5.5 9zm0-4.102c.883 0 1.602.719 1.602 1.602 0 .883-.719 1.602-1.602 1.602A1.604 1.604 0 0 1 3.898 6.5c0-.883.719-1.602 1.602-1.602z" />
      <path d="M3.32 13c.074 0 .15-.029.21-.087l5.206-4.995 3.288 3.583a.3.3 0 0 0 .451 0 .37.37 0 0 0 0-.492l-1.534-1.672 2.93-3.497 3.594 3.59c.13.13.332.12.451-.021a.37.37 0 0 0-.02-.492l-3.83-3.826a.314.314 0 0 0-.23-.09.31.31 0 0 0-.22.112L10.49 8.844l-1.514-1.65a.3.3 0 0 0-.437-.015l-5.43 5.212a.37.37 0 0 0-.03.491.307.307 0 0 0 .24.118z" />
    </g>
  </symbol>
  <symbol preserveAspectRatio="xMidYMid" viewBox="0 0 14 20" id="icon-map-marker">
    <title>map-marker</title>
    <g fill="#fff" fill-rule="evenodd" transform="translate(1 1)">
      <path fill="currentColor" fill-rule="nonzero" d="M6 4.235c-1.103 0-2 .95-2 2.118C4 7.52 4.897 8.47 6 8.47s2-.95 2-2.118c0-1.167-.897-2.118-2-2.118zm0 3.63c-.788 0-1.429-.678-1.429-1.512S5.212 4.84 6 4.84s1.429.679 1.429 1.513c0 .834-.641 1.513-1.429 1.513z" />
      <path fill-rule="nonzero" stroke="#28343B" d="M10.244 1.846C9.11.656 7.604 0 6 0 4.398 0 2.89.656 1.758 1.846-.34 4.05-.6 8.195 1.193 10.706L6.001 18l4.8-7.284c1.8-2.521 1.54-6.666-.557-8.87z" />
      <ellipse cx="6" cy="6.353" stroke="currentColor" rx="2" ry="2.118" />
    </g>
  </symbol>
  <symbol preserveAspectRatio="xMidYMid" viewBox="0 0 19 20" id="icon-pdf">
    <title>pdf</title>
    <g fill="currentColor">
      <path d="M18.862 5.412L13.742.118a.388.388 0 0 0-.28-.118h-7.63c-.854 0-1.55.691-1.55 1.54v5.383H1.19c-.64 0-1.16.517-1.16 1.153v5.771C.03 14.483.55 15 1.19 15h3.092v3.462c0 .848.695 1.538 1.549 1.538h11.59c.854 0 1.549-.69 1.549-1.537V5.679c0-.1-.039-.195-.108-.267zm-5.303-4.374l4.203 4.347h-4.203V1.038zM1.189 14.231a.385.385 0 0 1-.386-.384V8.076c0-.212.173-.384.386-.384h10.438c.212 0 .385.172.385.384v5.771a.385.385 0 0 1-.385.384H1.189zm17.008 4.232a.773.773 0 0 1-.776.768H5.83a.773.773 0 0 1-.776-.769V15h6.572c.639 0 1.158-.517 1.158-1.153V8.076c0-.636-.52-1.153-1.158-1.153H5.055V1.541c0-.426.348-.772.776-.772h6.954v5c0 .213.174.385.387.385h5.025v12.309z" />
      <path d="M4.651 9.761a.87.87 0 0 0-.478-.323c-.124-.033-.39-.05-.797-.05H2.3v3.304h.67v-1.246h.438c.303 0 .535-.016.695-.047a.974.974 0 0 0 .348-.157.907.907 0 0 0 .282-.326 1.07 1.07 0 0 0 .11-.511c0-.263-.064-.477-.192-.644zm-.574.91a.44.44 0 0 1-.21.162c-.089.035-.265.052-.53.052h-.366v-.938h.323c.242 0 .403.008.483.023a.47.47 0 0 1 .27.146.425.425 0 0 1 .106.298.442.442 0 0 1-.076.257zm3.989-.38a1.442 1.442 0 0 0-.317-.535 1.111 1.111 0 0 0-.5-.304 2.404 2.404 0 0 0-.632-.063H5.392v3.303h1.261c.248 0 .446-.023.594-.07a1.18 1.18 0 0 0 .47-.263 1.45 1.45 0 0 0 .356-.584 2.16 2.16 0 0 0 .102-.703 2.4 2.4 0 0 0-.109-.78zm-.652 1.357a.698.698 0 0 1-.175.319.62.62 0 0 1-.271.137 1.834 1.834 0 0 1-.405.032h-.5V9.947h.3c.274 0 .457.01.55.032a.639.639 0 0 1 .31.155.755.755 0 0 1 .191.32c.045.137.068.333.068.589 0 .255-.023.457-.068.605zm3.61-1.701V9.39H8.748v3.303h.67v-1.404h1.387v-.559H9.418v-.782z" />
    </g>
  </symbol>
  <symbol preserveAspectRatio="xMidYMid" viewBox="3 3 18 18" id="icon-pencil">
    <title>pencil</title>
    <g stroke="currentColor" fill="inherit" fill-rule="evenodd">
      <path d="M16.18 5.344l-9.76 9.762a.4.4 0 0 0 .137.656c.399.155.742.374 1.025.657.283.283.502.626.657 1.025a.4.4 0 0 0 .656.137l9.762-9.762c-.03-.832-.25-1.435-.646-1.83-.394-.394-.997-.614-1.83-.645z" />
      <path stroke-linecap="round" d="M6.432 15.182l-.796 3.182 3.182-.796M14.784 6.83c.873-.103 1.508.045 1.906.443.397.398.558 1.045.48 1.943" />
    </g>
  </symbol>
  <symbol preserveAspectRatio="xMidYMid" viewBox="0 0 53 53" id="icon-search">
    <title>search</title>
    <path fill="#9b9b9b" d="M51.704 51.273L36.845 35.82c3.79-3.801 6.138-9.041 6.138-14.82 0-11.58-9.42-21-21-21s-21 9.42-21 21 9.42 21 21 21c5.083 0 9.748-1.817 13.384-4.832l14.895 15.491a.998.998 0 0 0 1.414.028 1 1 0 0 0 .028-1.414zM21.983 40c-10.477 0-19-8.523-19-19s8.523-19 19-19 19 8.523 19 19-8.524 19-19 19z" />
  </symbol>
  <symbol preserveAspectRatio="xMidYMid" viewBox="0 0 24 24" id="icon-shop">
    <title>shop</title>
    <g stroke="currentColor" stroke-linecap="round" stroke-linejoin="round" stroke-width=".8" fill="#fff" fill-rule="evenodd">
      <path d="M20.963 10.044v10.06a1 1 0 0 1-1 1H4.037a1 1 0 0 1-1-1v-10.06" />
      <path d="M9.556 21.104h4.888v-7.916H9.556zM2.886 3.98L1.407 6.855h21.186l-1.48-2.873a2 2 0 0 0-1.778-1.085H4.665A2 2 0 0 0 2.886 3.98z" />
      <path d="M17.704 9.23c-1.333 2.09-4.014 2.526-5.702.635-1.707 1.915-4.39 1.425-5.706-.636-2.03 1.996-4.889.453-4.889-2.375h21.186c0 2.828-2.836 4.391-4.89 2.375z" />
      <path d="M6.296 9.23V6.457l.664-3.506m5.042 6.919V2.95m5.702 6.28V6.457l-.66-3.506" />
    </g>
  </symbol>
  <symbol preserveAspectRatio="xMidYMid" viewBox="0 0 21 12" id="icon-truck">
    <title>truck</title>
    <g fill="none" fill-rule="evenodd" stroke="#28343B">
      <path fill="#fff" d="M14.5 12V2A1.5 1.5 0 0 0 13 .5H2A1.5 1.5 0 0 0 .5 2v8.5A1.5 1.5 0 0 0 2 12h12.5zm0-8v7.5a.5.5 0 0 0 .5.5h5a.5.5 0 0 0 .5-.5V7.541a.5.5 0 0 0-.092-.29l-2.218-3.12a1.5 1.5 0 0 0-1.222-.631H15a.5.5 0 0 0-.5.5z" />
      <path stroke-linecap="round" d="M15 7.5h5.346" />
      <ellipse cx="17.132" cy="12.045" fill="#fff" rx="1.632" ry="1.545" />
      <ellipse cx="4.132" cy="12.045" fill="#fff" rx="1.632" ry="1.545" />
    </g>
  </symbol>
  <symbol preserveAspectRatio="xMidYMid" viewBox="0 0 24 24" id="icon-vertical-menu">
    <title>vertical-menu</title>
    <g fill="currentColor" transform="translate(10.25 4.25)" style="transition:inherit">
      <circle cx="1.75" cy="1.75" r="1.75" />
      <circle cx="1.75" cy="7.75" r="1.75" />
      <circle cx="1.75" cy="13.75" r="1.75" />
    </g>
  </symbol>
</svg>
