<svg viewBox="0 0 40 40" xmlns="http://www.w3.org/2000/svg">
    <g stroke="currentColor" stroke-width="1.5" fill-rule="evenodd">
        <path d="M7.55 22.8l8.4-5.029M24.05 21.229l8.4-5.029M24.5 20.286L17 17.143" stroke-linecap="round"/>
        <path d="M33.5 17.143c.828 0 1.5-.704 1.5-1.572 0-.867-.672-1.571-1.5-1.571s-1.5.704-1.5 1.571c0 .868.672 1.572 1.5 1.572zM24.5 21.857c.828 0 1.5-.703 1.5-1.571s-.672-1.572-1.5-1.572-1.5.704-1.5 1.572c0 .868.672 1.571 1.5 1.571zM15.5 20.286c.828 0 1.5-.704 1.5-1.572 0-.868-.672-1.571-1.5-1.571s-1.5.703-1.5 1.571.672 1.572 1.5 1.572zM6.5 25c.828 0 1.5-.704 1.5-1.571 0-.868-.672-1.572-1.5-1.572S5 22.561 5 23.43C5 24.296 5.672 25 6.5 25z" fill="#F7F7F7"/>
    </g>
</svg>
