<svg xmlns="http://www.w3.org/2000/svg" viewBox="0 0 19 20">
    <g fill="currentColor" fill-rule="nonzero">
        <path d="M18.862 5.412L13.742.118a.388.388 0 0 0-.28-.118H5.832c-.854 0-1.55.691-1.55 1.54v5.383H1.19C.55 6.923.03 7.44.03 8.076v5.771C.03 14.483.55 15 1.19 15h3.092v3.462c0 .848.695 1.538 1.549 1.538h11.59c.854 0 1.549-.69 1.549-1.537V5.679c0-.1-.039-.195-.108-.267zm-5.303-4.374l4.203 4.347h-4.203V1.038zM1.189 14.231a.385.385 0 0 1-.386-.384V8.076c0-.212.173-.384.386-.384h10.438c.212 0 .385.172.385.384v5.771a.385.385 0 0 1-.385.384H1.189zm17.008 4.232a.773.773 0 0 1-.776.768H5.83a.773.773 0 0 1-.776-.769V15h6.572c.639 0 1.158-.517 1.158-1.153V8.076c0-.636-.52-1.153-1.158-1.153H5.055V1.541c0-.426.348-.772.776-.772h6.954v5c0 .213.174.385.387.385h5.025v12.309z"/>
        <path d="M5.28 12.145c-.157.18-.35.322-.58.428-.23.105-.495.157-.795.157-.273 0-.526-.045-.757-.135a1.78 1.78 0 0 1-.603-.383 1.771 1.771 0 0 1-.4-.592A1.942 1.942 0 0 1 2 10.86c0-.283.05-.54.147-.77.099-.23.235-.426.408-.588.173-.161.377-.285.61-.372.233-.087.485-.13.755-.13.25 0 .496.044.737.133.242.088.438.217.588.387l-.58.58a.718.718 0 0 0-.315-.245 1.045 1.045 0 0 0-.812.002.968.968 0 0 0-.323.228c-.09.097-.16.21-.21.342-.05.132-.075.276-.075.433 0 .16.025.307.075.44.05.133.12.247.208.342.088.096.194.17.317.223.123.053.258.08.405.08.17 0 .318-.033.445-.1a.863.863 0 0 0 .305-.26l.595.56zm2.235-2.13a.772.772 0 0 0-.287-.223.811.811 0 0 0-.515-.067.445.445 0 0 0-.158.058.39.39 0 0 0-.117.11.293.293 0 0 0-.048.172c0 .06.012.11.038.15.025.04.061.075.11.105a.98.98 0 0 0 .172.082c.067.026.142.051.225.078.12.04.245.084.375.133.13.048.248.112.355.192.107.08.195.18.265.297.07.119.105.266.105.443 0 .203-.037.38-.112.527-.076.149-.176.271-.303.368a1.296 1.296 0 0 1-.435.215 1.83 1.83 0 0 1-.505.07c-.253 0-.498-.044-.735-.133a1.557 1.557 0 0 1-.59-.377l.56-.57c.087.107.2.196.343.268a.93.93 0 0 0 .422.107.85.85 0 0 0 .185-.02.461.461 0 0 0 .157-.065c.046-.03.081-.07.108-.12.027-.05.04-.11.04-.18a.285.285 0 0 0-.05-.17.488.488 0 0 0-.143-.127 1.148 1.148 0 0 0-.23-.105 11.819 11.819 0 0 0-.312-.103 2.986 2.986 0 0 1-.332-.13 1.113 1.113 0 0 1-.29-.193.892.892 0 0 1-.205-.284.966.966 0 0 1-.078-.408c0-.197.04-.365.12-.505.08-.14.185-.255.315-.345.13-.09.277-.156.44-.197a1.838 1.838 0 0 1 1.107.047c.209.073.391.182.548.325l-.545.575zm2.84 2.62H9.5l-1.34-3.54h.96l.82 2.51h.02l.815-2.51h.945l-1.365 3.54z"/>
    </g>
</svg>
