<svg xmlns="http://www.w3.org/2000/svg" viewBox="0 0 20 16">
  <g fill="currentColor">
    <path d="M19.655 0H.345A.346.346 0 0 0 0 .348v15.304c0 .193.154.348.345.348h19.31c.19 0 .345-.155.345-.348V.348A.346.346 0 0 0 19.655 0zm-.345 15.304H.69V.696h18.62v14.608z"/>
    <path d="M5.5 9C6.879 9 8 7.879 8 6.5S6.879 4 5.5 4A2.503 2.503 0 0 0 3 6.5C3 7.879 4.121 9 5.5 9zm0-4.102c.883 0 1.602.719 1.602 1.602 0 .883-.719 1.602-1.602 1.602A1.604 1.604 0 0 1 3.898 6.5c0-.883.719-1.602 1.602-1.602z"/>
    <path d="M3.32 13c.074 0 .15-.029.21-.087l5.206-4.995 3.288 3.583a.3.3 0 0 0 .451 0 .37.37 0 0 0 0-.492l-1.534-1.672 2.93-3.497 3.594 3.59c.13.13.332.12.451-.021a.37.37 0 0 0-.02-.492l-3.83-3.826a.314.314 0 0 0-.23-.09.31.31 0 0 0-.22.112L10.49 8.844l-1.514-1.65a.3.3 0 0 0-.437-.015l-5.43 5.212a.37.37 0 0 0-.03.491.307.307 0 0 0 .24.118z"/>
  </g>
</svg>
