<svg xmlns="http://www.w3.org/2000/svg" viewBox="0 0 19 20">
  <g fill="currentColor">
    <path d="M18.862 5.412L13.742.118a.388.388 0 0 0-.28-.118h-7.63c-.854 0-1.55.691-1.55 1.54v5.383H1.19c-.64 0-1.16.517-1.16 1.153v5.771C.03 14.483.55 15 1.19 15h3.092v3.462c0 .848.695 1.538 1.549 1.538h11.59c.854 0 1.549-.69 1.549-1.537V5.679c0-.1-.039-.195-.108-.267zm-5.303-4.374l4.203 4.347h-4.203V1.038zM1.189 14.231a.385.385 0 0 1-.386-.384V8.076c0-.212.173-.384.386-.384h10.438c.212 0 .385.172.385.384v5.771a.385.385 0 0 1-.385.384H1.189zm17.008 4.232a.773.773 0 0 1-.776.768H5.83a.773.773 0 0 1-.776-.769V15h6.572c.639 0 1.158-.517 1.158-1.153V8.076c0-.636-.52-1.153-1.158-1.153H5.055V1.541c0-.426.348-.772.776-.772h6.954v5c0 .213.174.385.387.385h5.025v12.309z"/>
    <path d="M4.651 9.761a.87.87 0 0 0-.478-.323c-.124-.033-.39-.05-.797-.05H2.3v3.304h.67v-1.246h.438c.303 0 .535-.016.695-.047a.974.974 0 0 0 .348-.157.907.907 0 0 0 .282-.326 1.07 1.07 0 0 0 .11-.511c0-.263-.064-.477-.192-.644zm-.574.91a.44.44 0 0 1-.21.162c-.089.035-.265.052-.53.052h-.366v-.938h.323c.242 0 .403.008.483.023a.47.47 0 0 1 .27.146.425.425 0 0 1 .106.298.442.442 0 0 1-.076.257zm3.989-.38a1.442 1.442 0 0 0-.317-.535 1.111 1.111 0 0 0-.5-.304 2.404 2.404 0 0 0-.632-.063H5.392v3.303h1.261c.248 0 .446-.023.594-.07a1.18 1.18 0 0 0 .47-.263 1.45 1.45 0 0 0 .356-.584 2.16 2.16 0 0 0 .102-.703 2.4 2.4 0 0 0-.109-.78zm-.652 1.357a.698.698 0 0 1-.175.319.62.62 0 0 1-.271.137 1.834 1.834 0 0 1-.405.032h-.5V9.947h.3c.274 0 .457.01.55.032a.639.639 0 0 1 .31.155.755.755 0 0 1 .191.32c.045.137.068.333.068.589 0 .255-.023.457-.068.605zm3.61-1.701V9.39H8.748v3.303h.67v-1.404h1.387v-.559H9.418v-.782z"/>
  </g>
</svg>
