<svg xmlns="http://www.w3.org/2000/svg" viewBox="3 3 18 18">
    <g fill="inherit" fill-rule="evenodd">
        <g stroke="currentColor">
            <path d="M16.18 5.344l-9.76 9.762a.4.4 0 0 0 .137.656c.399.155.742.374 1.025.657.283.283.502.626.657 1.025a.4.4 0 0 0 .656.137l9.762-9.762c-.03-.832-.25-1.435-.646-1.83-.394-.394-.997-.614-1.83-.645z"/>
            <path stroke-linecap="round" d="M6.432 15.182l-.796 3.182 3.182-.796M14.784 6.83c.873-.103 1.508.045 1.906.443.397.398.558 1.045.48 1.943"/>
        </g>
    </g>
</svg>
