<svg xmlns="http://www.w3.org/2000/svg" viewBox="0 0 24 24">
    <g fill="#fff" fill-rule="evenodd">
        <g stroke="currentColor" stroke-linecap="round" stroke-linejoin="round" stroke-width=".8">
            <path fill="#fff" d="M20.963 10.044v10.06a1 1 0 0 1-1 1H4.037a1 1 0 0 1-1-1v-10.06"/>
            <path fill="#fff" d="M9.556 21.104h4.888v-7.916H9.556zM2.886 3.98L1.407 6.855h21.186l-1.48-2.873a2 2 0 0 0-1.778-1.085H4.665A2 2 0 0 0 2.886 3.98z"/>
            <path fill="#fff" d="M17.704 9.23c-1.333 2.09-4.014 2.526-5.702.635-1.707 1.915-4.39 1.425-5.706-.636-2.03 1.996-4.889.453-4.889-2.375h21.186c0 2.828-2.836 4.391-4.89 2.375z"/>
            <path d="M6.296 9.23V6.457l.664-3.506m5.042 6.919V2.95m5.702 6.28V6.457l-.66-3.506"/>
        </g>
    </g>
</svg>
